<svg id="visual" viewBox="0 0 540 960" width="540" height="960" xmlns="http://www.w3.org/2000/svg" xmlns:xlink="http://www.w3.org/1999/xlink" version="1.1"><rect x="0" y="0" width="540" height="960" fill="#009473"></rect><path d="M224 0L215.8 22.8C207.7 45.7 191.3 91.3 178.8 137C166.3 182.7 157.7 228.3 156.3 274C155 319.7 161 365.3 164.2 411.2C167.3 457 167.7 503 173.3 548.8C179 594.7 190 640.3 187.3 686C184.7 731.7 168.3 777.3 163.7 823C159 868.7 166 914.3 169.5 937.2L173 960L0 960L0 937.2C0 914.3 0 868.7 0 823C0 777.3 0 731.7 0 686C0 640.3 0 594.7 0 548.8C0 503 0 457 0 411.2C0 365.3 0 319.7 0 274C0 228.3 0 182.7 0 137C0 91.3 0 45.7 0 22.8L0 0Z" fill="#fa7268"></path><path d="M135 0L143.5 22.8C152 45.7 169 91.3 166.2 137C163.3 182.7 140.7 228.3 134.3 274C128 319.7 138 365.3 146 411.2C154 457 160 503 163.8 548.8C167.7 594.7 169.3 640.3 170 686C170.7 731.7 170.3 777.3 161.5 823C152.7 868.7 135.3 914.3 126.7 937.2L118 960L0 960L0 937.2C0 914.3 0 868.7 0 823C0 777.3 0 731.7 0 686C0 640.3 0 594.7 0 548.8C0 503 0 457 0 411.2C0 365.3 0 319.7 0 274C0 228.3 0 182.7 0 137C0 91.3 0 45.7 0 22.8L0 0Z" fill="#ef5f67"></path><path d="M140 0L139.5 22.8C139 45.7 138 91.3 137.3 137C136.7 182.7 136.3 228.3 137.2 274C138 319.7 140 365.3 137.7 411.2C135.3 457 128.7 503 126.8 548.8C125 594.7 128 640.3 130 686C132 731.7 133 777.3 134 823C135 868.7 136 914.3 136.5 937.2L137 960L0 960L0 937.2C0 914.3 0 868.7 0 823C0 777.3 0 731.7 0 686C0 640.3 0 594.7 0 548.8C0 503 0 457 0 411.2C0 365.3 0 319.7 0 274C0 228.3 0 182.7 0 137C0 91.3 0 45.7 0 22.8L0 0Z" fill="#e34c67"></path><path d="M69 0L66.8 22.8C64.7 45.7 60.3 91.3 61.2 137C62 182.7 68 228.3 67.5 274C67 319.7 60 365.3 62.8 411.2C65.7 457 78.3 503 79 548.8C79.7 594.7 68.3 640.3 62.5 686C56.7 731.7 56.3 777.3 62 823C67.7 868.7 79.3 914.3 85.2 937.2L91 960L0 960L0 937.2C0 914.3 0 868.7 0 823C0 777.3 0 731.7 0 686C0 640.3 0 594.7 0 548.8C0 503 0 457 0 411.2C0 365.3 0 319.7 0 274C0 228.3 0 182.7 0 137C0 91.3 0 45.7 0 22.8L0 0Z" fill="#d53867"></path><path d="M27 0L29.3 22.8C31.7 45.7 36.3 91.3 43.2 137C50 182.7 59 228.3 59.8 274C60.7 319.7 53.3 365.3 51.3 411.2C49.3 457 52.7 503 54 548.8C55.3 594.7 54.7 640.3 56.7 686C58.7 731.7 63.3 777.3 64.7 823C66 868.7 64 914.3 63 937.2L62 960L0 960L0 937.2C0 914.3 0 868.7 0 823C0 777.3 0 731.7 0 686C0 640.3 0 594.7 0 548.8C0 503 0 457 0 411.2C0 365.3 0 319.7 0 274C0 228.3 0 182.7 0 137C0 91.3 0 45.7 0 22.8L0 0Z" fill="#c62368"></path></svg>