<svg id="visual" viewBox="0 0 960 540" width="960" height="540" xmlns="http://www.w3.org/2000/svg" xmlns:xlink="http://www.w3.org/1999/xlink" version="1.1"><rect x="0" y="0" width="960" height="540" fill="#CCCCCC"></rect><path d="M0 375L22.8 390.7C45.7 406.3 91.3 437.7 137 449.5C182.7 461.3 228.3 453.7 274 449.7C319.7 445.7 365.3 445.3 411.2 429.2C457 413 503 381 548.8 371C594.7 361 640.3 373 686 382.8C731.7 392.7 777.3 400.3 823 393.2C868.7 386 914.3 364 937.2 353L960 342L960 541L937.2 541C914.3 541 868.7 541 823 541C777.3 541 731.7 541 686 541C640.3 541 594.7 541 548.8 541C503 541 457 541 411.2 541C365.3 541 319.7 541 274 541C228.3 541 182.7 541 137 541C91.3 541 45.7 541 22.8 541L0 541Z" fill="#4FACF7" stroke-linecap="round" stroke-linejoin="miter"></path></svg>