<svg id="visual" viewBox="0 0 540 960" width="540" height="960" xmlns="http://www.w3.org/2000/svg" xmlns:xlink="http://www.w3.org/1999/xlink" version="1.1"><rect x="0" y="0" width="540" height="960" fill="#FFFFFF"></rect><path d="M387 960L384.3 937.2C381.7 914.3 376.3 868.7 374.3 823C372.3 777.3 373.7 731.7 376.8 686C380 640.3 385 594.7 394.3 548.8C403.7 503 417.3 457 414 411.2C410.7 365.3 390.3 319.7 391 274C391.7 228.3 413.3 182.7 425.8 137C438.3 91.3 441.7 45.7 443.3 22.8L445 0L540 0L540 22.8C540 45.7 540 91.3 540 137C540 182.7 540 228.3 540 274C540 319.7 540 365.3 540 411.2C540 457 540 503 540 548.8C540 594.7 540 640.3 540 686C540 731.7 540 777.3 540 823C540 868.7 540 914.3 540 937.2L540 960Z" fill="#ffffff"></path><path d="M394 960L405.7 937.2C417.3 914.3 440.7 868.7 440.3 823C440 777.3 416 731.7 406.8 686C397.7 640.3 403.3 594.7 411.3 548.8C419.3 503 429.7 457 426.5 411.2C423.3 365.3 406.7 319.7 401.5 274C396.3 228.3 402.7 182.7 402.5 137C402.3 91.3 395.7 45.7 392.3 22.8L389 0L540 0L540 22.8C540 45.7 540 91.3 540 137C540 182.7 540 228.3 540 274C540 319.7 540 365.3 540 411.2C540 457 540 503 540 548.8C540 594.7 540 640.3 540 686C540 731.7 540 777.3 540 823C540 868.7 540 914.3 540 937.2L540 960Z" fill="#f2f2f2"></path><path d="M455 960L457.8 937.2C460.7 914.3 466.3 868.7 470 823C473.7 777.3 475.3 731.7 475.8 686C476.3 640.3 475.7 594.7 475 548.8C474.3 503 473.7 457 468 411.2C462.3 365.3 451.7 319.7 450 274C448.3 228.3 455.7 182.7 461.3 137C467 91.3 471 45.7 473 22.8L475 0L540 0L540 22.8C540 45.7 540 91.3 540 137C540 182.7 540 228.3 540 274C540 319.7 540 365.3 540 411.2C540 457 540 503 540 548.8C540 594.7 540 640.3 540 686C540 731.7 540 777.3 540 823C540 868.7 540 914.3 540 937.2L540 960Z" fill="#e5e5e5"></path><path d="M493 960L493.3 937.2C493.7 914.3 494.3 868.7 490.2 823C486 777.3 477 731.7 472.7 686C468.3 640.3 468.7 594.7 466 548.8C463.3 503 457.7 457 458.7 411.2C459.7 365.3 467.3 319.7 475 274C482.7 228.3 490.3 182.7 487.3 137C484.3 91.3 470.7 45.7 463.8 22.8L457 0L540 0L540 22.8C540 45.7 540 91.3 540 137C540 182.7 540 228.3 540 274C540 319.7 540 365.3 540 411.2C540 457 540 503 540 548.8C540 594.7 540 640.3 540 686C540 731.7 540 777.3 540 823C540 868.7 540 914.3 540 937.2L540 960Z" fill="#ebf7cb"></path><path d="M478 960L482 937.2C486 914.3 494 868.7 498.5 823C503 777.3 504 731.7 505.2 686C506.3 640.3 507.7 594.7 507.7 548.8C507.7 503 506.3 457 506.8 411.2C507.3 365.3 509.7 319.7 511.2 274C512.7 228.3 513.3 182.7 512 137C510.7 91.3 507.3 45.7 505.7 22.8L504 0L540 0L540 22.8C540 45.7 540 91.3 540 137C540 182.7 540 228.3 540 274C540 319.7 540 365.3 540 411.2C540 457 540 503 540 548.8C540 594.7 540 640.3 540 686C540 731.7 540 777.3 540 823C540 868.7 540 914.3 540 937.2L540 960Z" fill="#cccccc"></path></svg>