<svg id="visual" viewBox="0 0 540 960" width="540" height="960" xmlns="http://www.w3.org/2000/svg" xmlns:xlink="http://www.w3.org/1999/xlink" version="1.1"><rect x="0" y="0" width="540" height="960" fill="#CCCCCC"></rect><defs><linearGradient id="grad1_0" x1="0%" y1="100%" x2="100%" y2="0%"><stop offset="30%" stop-color="#cccccc" stop-opacity="1"></stop><stop offset="70%" stop-color="#cccccc" stop-opacity="1"></stop></linearGradient></defs><defs><linearGradient id="grad2_0" x1="0%" y1="100%" x2="100%" y2="0%"><stop offset="30%" stop-color="#cccccc" stop-opacity="1"></stop><stop offset="70%" stop-color="#cccccc" stop-opacity="1"></stop></linearGradient></defs><g transform="translate(540, 960)"><path d="M-356 0C-422.1 -72.3 -488.2 -144.6 -474 -196.3C-459.7 -248 -365 -279.1 -297 -297C-228.9 -314.9 -187.4 -319.7 -142.4 -343.7C-97.3 -367.7 -48.6 -410.8 0 -454L0 0Z" fill="#4FACF7"></path></g><g transform="translate(0, 0)"><path d="M398 0C441 68.5 484 137.1 474 196.3C463.9 255.6 400.7 305.5 341.5 341.5C282.4 377.6 227.3 399.7 171.1 413C114.8 426.2 57.4 430.6 0 435L0 0Z" fill="#4FACF7"></path></g></svg>