<svg id="visual" viewBox="0 0 960 540" width="960" height="540" xmlns="http://www.w3.org/2000/svg" xmlns:xlink="http://www.w3.org/1999/xlink" version="1.1"><rect x="0" y="0" width="960" height="540" fill="#CCCCCC"></rect><defs><linearGradient id="grad1_0" x1="43.8%" y1="100%" x2="100%" y2="0%"><stop offset="14.444444444444446%" stop-color="#009473" stop-opacity="1"></stop><stop offset="85.55555555555554%" stop-color="#009473" stop-opacity="1"></stop></linearGradient></defs><defs><linearGradient id="grad1_1" x1="43.8%" y1="100%" x2="100%" y2="0%"><stop offset="14.444444444444446%" stop-color="#009473" stop-opacity="1"></stop><stop offset="85.55555555555554%" stop-color="#61a790" stop-opacity="1"></stop></linearGradient></defs><defs><linearGradient id="grad1_2" x1="43.8%" y1="100%" x2="100%" y2="0%"><stop offset="14.444444444444446%" stop-color="#99baad" stop-opacity="1"></stop><stop offset="85.55555555555554%" stop-color="#61a790" stop-opacity="1"></stop></linearGradient></defs><defs><linearGradient id="grad1_3" x1="43.8%" y1="100%" x2="100%" y2="0%"><stop offset="14.444444444444446%" stop-color="#99baad" stop-opacity="1"></stop><stop offset="85.55555555555554%" stop-color="#cccccc" stop-opacity="1"></stop></linearGradient></defs><defs><linearGradient id="grad2_0" x1="0%" y1="100%" x2="56.3%" y2="0%"><stop offset="14.444444444444446%" stop-color="#009473" stop-opacity="1"></stop><stop offset="85.55555555555554%" stop-color="#009473" stop-opacity="1"></stop></linearGradient></defs><defs><linearGradient id="grad2_1" x1="0%" y1="100%" x2="56.3%" y2="0%"><stop offset="14.444444444444446%" stop-color="#61a790" stop-opacity="1"></stop><stop offset="85.55555555555554%" stop-color="#009473" stop-opacity="1"></stop></linearGradient></defs><defs><linearGradient id="grad2_2" x1="0%" y1="100%" x2="56.3%" y2="0%"><stop offset="14.444444444444446%" stop-color="#61a790" stop-opacity="1"></stop><stop offset="85.55555555555554%" stop-color="#99baad" stop-opacity="1"></stop></linearGradient></defs><defs><linearGradient id="grad2_3" x1="0%" y1="100%" x2="56.3%" y2="0%"><stop offset="14.444444444444446%" stop-color="#cccccc" stop-opacity="1"></stop><stop offset="85.55555555555554%" stop-color="#99baad" stop-opacity="1"></stop></linearGradient></defs><g transform="translate(960, 540)"><path d="M-405 0C-376 -59.8 -347.1 -119.7 -317 -183C-286.8 -246.3 -255.5 -313.2 -202.5 -350.7C-149.5 -388.3 -74.7 -396.7 0 -405L0 0Z" fill="#b3c3bd"></path><path d="M-303.7 0C-282 -44.9 -260.3 -89.8 -237.7 -137.3C-215.1 -184.7 -191.6 -234.9 -151.9 -263.1C-112.1 -291.2 -56.1 -297.5 0 -303.7L0 0Z" fill="#7eb19e"></path><path d="M-202.5 0C-188 -29.9 -173.5 -59.8 -158.5 -91.5C-143.4 -123.2 -127.8 -156.6 -101.3 -175.4C-74.7 -194.2 -37.4 -198.3 0 -202.5L0 0Z" fill="#409e81"></path><path d="M-101.2 0C-94 -15 -86.8 -29.9 -79.2 -45.8C-71.7 -61.6 -63.9 -78.3 -50.6 -87.7C-37.4 -97.1 -18.7 -99.2 0 -101.2L0 0Z" fill="#009473"></path></g><g transform="translate(0, 0)"><path d="M405 0C380.7 62.5 356.3 125 325.6 188C294.9 251 257.8 314.5 202.5 350.7C147.2 387 73.6 396 0 405L0 0Z" fill="#b3c3bd"></path><path d="M303.8 0C285.5 46.9 267.3 93.8 244.2 141C221.2 188.2 193.4 235.9 151.9 263.1C110.4 290.2 55.2 297 0 303.8L0 0Z" fill="#7eb19e"></path><path d="M202.5 0C190.3 31.3 178.2 62.5 162.8 94C147.5 125.5 128.9 157.2 101.3 175.4C73.6 193.5 36.8 198 0 202.5L0 0Z" fill="#409e81"></path><path d="M101.3 0C95.2 15.6 89.1 31.3 81.4 47C73.7 62.7 64.5 78.6 50.6 87.7C36.8 96.7 18.4 99 0 101.3L0 0Z" fill="#009473"></path></g></svg>