<svg id="visual" viewBox="0 0 960 540" width="960" height="540" xmlns="http://www.w3.org/2000/svg" xmlns:xlink="http://www.w3.org/1999/xlink" version="1.1"><rect x="0" y="0" width="960" height="540" fill="#CCCCCC"></rect><defs><linearGradient id="grad1_0" x1="43.8%" y1="0%" x2="100%" y2="100%"><stop offset="14.444444444444446%" stop-color="#009473" stop-opacity="1"></stop><stop offset="85.55555555555554%" stop-color="#009473" stop-opacity="1"></stop></linearGradient></defs><defs><linearGradient id="grad1_1" x1="43.8%" y1="0%" x2="100%" y2="100%"><stop offset="14.444444444444446%" stop-color="#009473" stop-opacity="1"></stop><stop offset="85.55555555555554%" stop-color="#52a388" stop-opacity="1"></stop></linearGradient></defs><defs><linearGradient id="grad1_2" x1="43.8%" y1="0%" x2="100%" y2="100%"><stop offset="14.444444444444446%" stop-color="#7eb19e" stop-opacity="1"></stop><stop offset="85.55555555555554%" stop-color="#52a388" stop-opacity="1"></stop></linearGradient></defs><defs><linearGradient id="grad1_3" x1="43.8%" y1="0%" x2="100%" y2="100%"><stop offset="14.444444444444446%" stop-color="#7eb19e" stop-opacity="1"></stop><stop offset="85.55555555555554%" stop-color="#a6bfb5" stop-opacity="1"></stop></linearGradient></defs><defs><linearGradient id="grad1_4" x1="43.8%" y1="0%" x2="100%" y2="100%"><stop offset="14.444444444444446%" stop-color="#cccccc" stop-opacity="1"></stop><stop offset="85.55555555555554%" stop-color="#a6bfb5" stop-opacity="1"></stop></linearGradient></defs><defs><linearGradient id="grad2_0" x1="0%" y1="0%" x2="56.3%" y2="100%"><stop offset="14.444444444444446%" stop-color="#009473" stop-opacity="1"></stop><stop offset="85.55555555555554%" stop-color="#009473" stop-opacity="1"></stop></linearGradient></defs><defs><linearGradient id="grad2_1" x1="0%" y1="0%" x2="56.3%" y2="100%"><stop offset="14.444444444444446%" stop-color="#52a388" stop-opacity="1"></stop><stop offset="85.55555555555554%" stop-color="#009473" stop-opacity="1"></stop></linearGradient></defs><defs><linearGradient id="grad2_2" x1="0%" y1="0%" x2="56.3%" y2="100%"><stop offset="14.444444444444446%" stop-color="#52a388" stop-opacity="1"></stop><stop offset="85.55555555555554%" stop-color="#7eb19e" stop-opacity="1"></stop></linearGradient></defs><defs><linearGradient id="grad2_3" x1="0%" y1="0%" x2="56.3%" y2="100%"><stop offset="14.444444444444446%" stop-color="#a6bfb5" stop-opacity="1"></stop><stop offset="85.55555555555554%" stop-color="#7eb19e" stop-opacity="1"></stop></linearGradient></defs><defs><linearGradient id="grad2_4" x1="0%" y1="0%" x2="56.3%" y2="100%"><stop offset="14.444444444444446%" stop-color="#a6bfb5" stop-opacity="1"></stop><stop offset="85.55555555555554%" stop-color="#cccccc" stop-opacity="1"></stop></linearGradient></defs><g transform="translate(960, 0)"><path d="M0 486C-80.7 496.3 -161.3 506.5 -186 449C-210.6 391.5 -179.2 266.2 -217.8 217.8C-256.4 169.4 -364.9 198 -421.3 174.5C-477.7 151 -481.8 75.5 -486 0L0 0Z" fill="#b9c5c0"></path><path d="M0 388.8C-64.5 397 -129.1 405.2 -148.8 359.2C-168.5 313.2 -143.4 212.9 -174.2 174.2C-205.1 135.5 -291.9 158.4 -337 139.6C-382.1 120.8 -385.5 60.4 -388.8 0L0 0Z" fill="#92b8aa"></path><path d="M0 291.6C-48.4 297.8 -96.8 303.9 -111.6 269.4C-126.4 234.9 -107.5 159.7 -130.7 130.7C-153.8 101.6 -219 118.8 -252.8 104.7C-286.6 90.6 -289.1 45.3 -291.6 0L0 0Z" fill="#69aa93"></path><path d="M0 194.4C-32.3 198.5 -64.5 202.6 -74.4 179.6C-84.2 156.6 -71.7 106.5 -87.1 87.1C-102.5 67.8 -146 79.2 -168.5 69.8C-191.1 60.4 -192.7 30.2 -194.4 0L0 0Z" fill="#369b7e"></path><path d="M0 97.2C-16.1 99.3 -32.3 101.3 -37.2 89.8C-42.1 78.3 -35.8 53.2 -43.6 43.6C-51.3 33.9 -73 39.6 -84.3 34.9C-95.5 30.2 -96.4 15.1 -97.2 0L0 0Z" fill="#009473"></path></g><g transform="translate(0, 540)"><path d="M0 -486C65.2 -482.1 130.4 -478.2 186 -449C241.6 -419.8 287.5 -365.3 310.4 -310.4C333.3 -255.5 333.1 -200.3 358.5 -148.5C383.9 -96.7 434.9 -48.3 486 0L0 0Z" fill="#b9c5c0"></path><path d="M0 -388.8C52.2 -385.7 104.3 -382.6 148.8 -359.2C193.3 -335.8 230 -292.2 248.3 -248.3C266.6 -204.4 266.4 -160.2 286.8 -118.8C307.1 -77.3 348 -38.7 388.8 0L0 0Z" fill="#92b8aa"></path><path d="M0 -291.6C39.1 -289.3 78.2 -286.9 111.6 -269.4C144.9 -251.9 172.5 -219.2 186.3 -186.3C200 -153.3 199.8 -120.2 215.1 -89.1C230.3 -58 261 -29 291.6 0L0 0Z" fill="#69aa93"></path><path d="M0 -194.4C26.1 -192.8 52.2 -191.3 74.4 -179.6C96.6 -167.9 115 -146.1 124.2 -124.2C133.3 -102.2 133.2 -80.1 143.4 -59.4C153.6 -38.7 174 -19.3 194.4 0L0 0Z" fill="#369b7e"></path><path d="M0 -97.2C13 -96.4 26.1 -95.6 37.2 -89.8C48.3 -84 57.5 -73.1 62.1 -62.1C66.7 -51.1 66.6 -40.1 71.7 -29.7C76.8 -19.3 87 -9.7 97.2 0L0 0Z" fill="#009473"></path></g></svg>