<svg id="visual" viewBox="0 0 900 600" width="900" height="600" xmlns="http://www.w3.org/2000/svg" xmlns:xlink="http://www.w3.org/1999/xlink" version="1.1"><rect x="0" y="0" width="900" height="600" fill="#001122"></rect><defs><linearGradient id="grad1_0" x1="33.3%" y1="100%" x2="100%" y2="0%"><stop offset="20%" stop-color="#0c4a6e" stop-opacity="1"></stop><stop offset="80%" stop-color="#0c4a6e" stop-opacity="1"></stop></linearGradient></defs><defs><linearGradient id="grad1_1" x1="33.3%" y1="100%" x2="100%" y2="0%"><stop offset="20%" stop-color="#0c4a6e" stop-opacity="1"></stop><stop offset="80%" stop-color="#0c4162" stop-opacity="1"></stop></linearGradient></defs><defs><linearGradient id="grad1_2" x1="33.3%" y1="100%" x2="100%" y2="0%"><stop offset="20%" stop-color="#0b3957" stop-opacity="1"></stop><stop offset="80%" stop-color="#0c4162" stop-opacity="1"></stop></linearGradient></defs><defs><linearGradient id="grad1_3" x1="33.3%" y1="100%" x2="100%" y2="0%"><stop offset="20%" stop-color="#0b3957" stop-opacity="1"></stop><stop offset="80%" stop-color="#09304c" stop-opacity="1"></stop></linearGradient></defs><defs><linearGradient id="grad1_4" x1="33.3%" y1="100%" x2="100%" y2="0%"><stop offset="20%" stop-color="#082841" stop-opacity="1"></stop><stop offset="80%" stop-color="#09304c" stop-opacity="1"></stop></linearGradient></defs><defs><linearGradient id="grad1_5" x1="33.3%" y1="100%" x2="100%" y2="0%"><stop offset="20%" stop-color="#082841" stop-opacity="1"></stop><stop offset="80%" stop-color="#062136" stop-opacity="1"></stop></linearGradient></defs><defs><linearGradient id="grad1_6" x1="33.3%" y1="100%" x2="100%" y2="0%"><stop offset="20%" stop-color="#04192c" stop-opacity="1"></stop><stop offset="80%" stop-color="#062136" stop-opacity="1"></stop></linearGradient></defs><defs><linearGradient id="grad1_7" x1="33.3%" y1="100%" x2="100%" y2="0%"><stop offset="20%" stop-color="#04192c" stop-opacity="1"></stop><stop offset="80%" stop-color="#001122" stop-opacity="1"></stop></linearGradient></defs><defs><linearGradient id="grad2_0" x1="0%" y1="100%" x2="66.7%" y2="0%"><stop offset="20%" stop-color="#0c4a6e" stop-opacity="1"></stop><stop offset="80%" stop-color="#0c4a6e" stop-opacity="1"></stop></linearGradient></defs><defs><linearGradient id="grad2_1" x1="0%" y1="100%" x2="66.7%" y2="0%"><stop offset="20%" stop-color="#0c4162" stop-opacity="1"></stop><stop offset="80%" stop-color="#0c4a6e" stop-opacity="1"></stop></linearGradient></defs><defs><linearGradient id="grad2_2" x1="0%" y1="100%" x2="66.7%" y2="0%"><stop offset="20%" stop-color="#0c4162" stop-opacity="1"></stop><stop offset="80%" stop-color="#0b3957" stop-opacity="1"></stop></linearGradient></defs><defs><linearGradient id="grad2_3" x1="0%" y1="100%" x2="66.7%" y2="0%"><stop offset="20%" stop-color="#09304c" stop-opacity="1"></stop><stop offset="80%" stop-color="#0b3957" stop-opacity="1"></stop></linearGradient></defs><defs><linearGradient id="grad2_4" x1="0%" y1="100%" x2="66.7%" y2="0%"><stop offset="20%" stop-color="#09304c" stop-opacity="1"></stop><stop offset="80%" stop-color="#082841" stop-opacity="1"></stop></linearGradient></defs><defs><linearGradient id="grad2_5" x1="0%" y1="100%" x2="66.7%" y2="0%"><stop offset="20%" stop-color="#062136" stop-opacity="1"></stop><stop offset="80%" stop-color="#082841" stop-opacity="1"></stop></linearGradient></defs><defs><linearGradient id="grad2_6" x1="0%" y1="100%" x2="66.7%" y2="0%"><stop offset="20%" stop-color="#062136" stop-opacity="1"></stop><stop offset="80%" stop-color="#04192c" stop-opacity="1"></stop></linearGradient></defs><defs><linearGradient id="grad2_7" x1="0%" y1="100%" x2="66.7%" y2="0%"><stop offset="20%" stop-color="#001122" stop-opacity="1"></stop><stop offset="80%" stop-color="#04192c" stop-opacity="1"></stop></linearGradient></defs><g transform="translate(900, 600)"><path d="M-432.7 0C-381 -51.9 -329.2 -103.8 -299.6 -173C-270.1 -242.2 -262.6 -328.5 -216.3 -374.7C-170.1 -420.9 -85 -426.8 0 -432.7L0 0Z" fill="#031527"></path><path d="M-378.6 0C-333.3 -45.4 -288.1 -90.9 -262.2 -151.4C-236.3 -211.9 -229.8 -287.5 -189.3 -327.9C-148.8 -368.2 -74.4 -373.4 0 -378.6L0 0Z" fill="#051d31"></path><path d="M-324.5 0C-285.7 -38.9 -246.9 -77.9 -224.7 -129.8C-202.5 -181.6 -196.9 -246.4 -162.2 -281C-127.6 -315.6 -63.8 -320.1 0 -324.5L0 0Z" fill="#07253c"></path><path d="M-270.4 0C-238.1 -32.5 -205.8 -64.9 -187.3 -108.1C-168.8 -151.3 -164.1 -205.3 -135.2 -234.2C-106.3 -263 -53.1 -266.7 0 -270.4L0 0Z" fill="#092c46"></path><path d="M-216.3 0C-190.5 -26 -164.6 -51.9 -149.8 -86.5C-135 -121.1 -131.3 -164.3 -108.2 -187.3C-85 -210.4 -42.5 -213.4 0 -216.3L0 0Z" fill="#0a3551"></path><path d="M-162.2 0C-142.9 -19.5 -123.5 -38.9 -112.4 -64.9C-101.3 -90.8 -98.5 -123.2 -81.1 -140.5C-63.8 -157.8 -31.9 -160 0 -162.2L0 0Z" fill="#0b3d5d"></path><path d="M-108.2 0C-95.2 -13 -82.3 -26 -74.9 -43.3C-67.5 -60.5 -65.6 -82.1 -54.1 -93.7C-42.5 -105.2 -21.3 -106.7 0 -108.2L0 0Z" fill="#0c4668"></path><path d="M-54.1 0C-47.6 -6.5 -41.2 -13 -37.5 -21.6C-33.8 -30.3 -32.8 -41.1 -27 -46.8C-21.3 -52.6 -10.6 -53.3 0 -54.1L0 0Z" fill="#0c4a6e"></path></g><g transform="translate(0, 0)"><path d="M432.7 0C399.4 62.6 366.2 125.2 334.3 193C302.4 260.8 271.8 333.9 216.3 374.7C160.8 415.5 80.4 424.1 0 432.7L0 0Z" fill="#031527"></path><path d="M378.6 0C349.5 54.8 320.4 109.5 292.5 168.9C264.6 228.2 237.8 292.1 189.3 327.9C140.7 363.6 70.4 371.1 0 378.6L0 0Z" fill="#051d31"></path><path d="M324.5 0C299.6 46.9 274.6 93.9 250.7 144.7C226.8 195.6 203.9 250.4 162.2 281C120.6 311.6 60.3 318.1 0 324.5L0 0Z" fill="#07253c"></path><path d="M270.4 0C249.6 39.1 228.9 78.2 208.9 120.6C189 163 169.9 208.7 135.2 234.2C100.5 259.7 50.3 265.1 0 270.4L0 0Z" fill="#092c46"></path><path d="M216.3 0C199.7 31.3 183.1 62.6 167.1 96.5C151.2 130.4 135.9 166.9 108.2 187.3C80.4 207.8 40.2 212 0 216.3L0 0Z" fill="#0a3551"></path><path d="M162.2 0C149.8 23.5 137.3 46.9 125.4 72.4C113.4 97.8 101.9 125.2 81.1 140.5C60.3 155.8 30.2 159 0 162.2L0 0Z" fill="#0b3d5d"></path><path d="M108.2 0C99.9 15.6 91.5 31.3 83.6 48.2C75.6 65.2 68 83.5 54.1 93.7C40.2 103.9 20.1 106 0 108.2L0 0Z" fill="#0c4668"></path><path d="M54.1 0C49.9 7.8 45.8 15.6 41.8 24.1C37.8 32.6 34 41.7 27 46.8C20.1 51.9 10.1 53 0 54.1L0 0Z" fill="#0c4a6e"></path></g></svg>