<svg id="visual" viewBox="0 0 900 600" width="900" height="600" xmlns="http://www.w3.org/2000/svg" xmlns:xlink="http://www.w3.org/1999/xlink" version="1.1"><rect x="0" y="0" width="900" height="600" fill="#CCCCCC"></rect><path d="M0 421L30 414C60 407 120 393 180 389.2C240 385.3 300 391.7 360 400C420 408.3 480 418.7 540 420.3C600 422 660 415 720 408C780 401 840 394 870 390.5L900 387L900 601L870 601C840 601 780 601 720 601C660 601 600 601 540 601C480 601 420 601 360 601C300 601 240 601 180 601C120 601 60 601 30 601L0 601Z" fill="#ff6f61"></path><path d="M0 448L30 455.8C60 463.7 120 479.3 180 480.5C240 481.7 300 468.3 360 468.5C420 468.7 480 482.3 540 485.3C600 488.3 660 480.7 720 478.3C780 476 840 479 870 480.5L900 482L900 601L870 601C840 601 780 601 720 601C660 601 600 601 540 601C480 601 420 601 360 601C300 601 240 601 180 601C120 601 60 601 30 601L0 601Z" fill="#ff4b60"></path><path d="M0 540L30 533.8C60 527.7 120 515.3 180 510.3C240 505.3 300 507.7 360 511.2C420 514.7 480 519.3 540 523.7C600 528 660 532 720 532.7C780 533.3 840 530.7 870 529.3L900 528L900 601L870 601C840 601 780 601 720 601C660 601 600 601 540 601C480 601 420 601 360 601C300 601 240 601 180 601C120 601 60 601 30 601L0 601Z" fill="#ff0066"></path></svg>