<svg id="visual" viewBox="0 0 1920 1080" width="1920" height="1080" xmlns="http://www.w3.org/2000/svg" xmlns:xlink="http://www.w3.org/1999/xlink" version="1.1"><rect x="0" y="0" width="1920" height="1080" fill="#CCCCCC"></rect><path d="M0 693L80 707.2C160 721.3 320 749.7 480 781.2C640 812.7 800 847.3 960 857.5C1120 867.7 1280 853.3 1440 845.8C1600 838.3 1760 837.7 1840 837.3L1920 837L1920 1081L1840 1081C1760 1081 1600 1081 1440 1081C1280 1081 1120 1081 960 1081C800 1081 640 1081 480 1081C320 1081 160 1081 80 1081L0 1081Z" fill="#c62368"></path><path d="M0 884L80 884.7C160 885.3 320 886.7 480 885.2C640 883.7 800 879.3 960 865.8C1120 852.3 1280 829.7 1440 822.2C1600 814.7 1760 822.3 1840 826.2L1920 830L1920 1081L1840 1081C1760 1081 1600 1081 1440 1081C1280 1081 1120 1081 960 1081C800 1081 640 1081 480 1081C320 1081 160 1081 80 1081L0 1081Z" fill="#d23467"></path><path d="M0 821L80 832.7C160 844.3 320 867.7 480 879.3C640 891 800 891 960 876.2C1120 861.3 1280 831.7 1440 842.8C1600 854 1760 906 1840 932L1920 958L1920 1081L1840 1081C1760 1081 1600 1081 1440 1081C1280 1081 1120 1081 960 1081C800 1081 640 1081 480 1081C320 1081 160 1081 80 1081L0 1081Z" fill="#de4467"></path><path d="M0 859L80 858.3C160 857.7 320 856.3 480 865.5C640 874.7 800 894.3 960 912.2C1120 930 1280 946 1440 958.7C1600 971.3 1760 980.7 1840 985.3L1920 990L1920 1081L1840 1081C1760 1081 1600 1081 1440 1081C1280 1081 1120 1081 960 1081C800 1081 640 1081 480 1081C320 1081 160 1081 80 1081L0 1081Z" fill="#e85467"></path><path d="M0 980L80 985.8C160 991.7 320 1003.3 480 1000.2C640 997 800 979 960 964C1120 949 1280 937 1440 946C1600 955 1760 985 1840 1000L1920 1015L1920 1081L1840 1081C1760 1081 1600 1081 1440 1081C1280 1081 1120 1081 960 1081C800 1081 640 1081 480 1081C320 1081 160 1081 80 1081L0 1081Z" fill="#f16367"></path><path d="M0 970L80 971.3C160 972.7 320 975.3 480 983C640 990.7 800 1003.3 960 1012.7C1120 1022 1280 1028 1440 1020.2C1600 1012.3 1760 990.7 1840 979.8L1920 969L1920 1081L1840 1081C1760 1081 1600 1081 1440 1081C1280 1081 1120 1081 960 1081C800 1081 640 1081 480 1081C320 1081 160 1081 80 1081L0 1081Z" fill="#fa7268"></path></svg>